<svg width="100" height="100" viewBox="0 0 100 100" fill="none" xmlns="http://www.w3.org/2000/svg">
<g clip-path="url(#clip0_58_172)">
<path d="M98.2349 46.7306C98.049 46.2965 96.8736 44.1926 94.6022 41.3452C92.9129 39.2276 89.9461 37.0972 88.3639 35.3548C86.9263 33.7717 84.3295 28.8608 83.0417 26.7172C82.347 25.5609 81.2894 24.3595 79.9877 23.4689C78.0696 22.1567 76.6661 22.3251 75.3334 21.6913C73.8581 20.9897 71.7004 20.4366 69.0827 20.1344C66.0592 19.7854 63.5108 19.9237 61.5084 19.9788C58.9777 20.0485 56.1544 20.4497 52.8809 20.0866C48.6645 19.619 46.0947 18.2882 43.9968 18.2231C39.1163 18.0715 34.7453 18.4595 32.4016 18.8157C28.2357 19.4487 26.5719 18.7016 25.2076 18.686C24.1037 18.6733 23.1025 19.6765 21.9328 20.4253C20.8812 21.0984 19.7014 22.3666 18.0759 24.4573C16.1738 26.9037 15.8006 28.7218 15.417 30.1007C15.0548 31.4025 14.8485 34.8951 14.7318 39.3998C14.6261 43.4805 15.2261 45.0982 16.2103 46.612C17.3958 48.4353 21.6676 50.1875 24.2042 51.4089C24.7675 51.6801 27.2374 51.6109 30.9846 51.62C33.7609 51.6268 37.5204 50.7783 42.5749 49.4509C45.0404 48.8035 47.2605 48.0495 49.9003 47.4562C52.5402 46.8629 55.5216 46.4125 58.3736 45.7892C63.9046 44.5806 66.7802 43.4437 67.1878 43.1515C68.035 42.5441 68.5902 40.1076 68.6206 36.81C68.6302 35.7645 66.6677 35.5386 62.1824 34.8607C58.5768 34.3157 52.2325 33.6425 47.8119 33.2646C41.0911 32.69 38.0576 32.9889 36.758 33.1396C33.2137 33.5506 29.6295 34.6776 28.7417 35.4451C27.0241 36.93 27.7109 40.4526 27.2638 43.4121C26.6488 47.4819 25.9345 51.7556 26.2053 54.5839C26.3151 55.7303 27.3199 56.3759 28.6977 58.421C29.6245 59.7967 31.2657 62.0475 32.4607 64.0155C32.8939 64.729 33.1498 65.3053 33.2005 67.38C33.3291 72.6492 32.9157 77.0311 32.6286 78.7059C32.1662 81.4025 31.4245 83.11 30.8691 84.8091C30.4193 86.185 30.3187 87.3705 30.0149 88.8933C28.6036 95.9675 27.9759 98.7558 28.2587 99.1495C28.7632 99.8519 33.1395 98.4301 39.0773 97.0236C41.5587 96.4359 43.0141 96.345 46.8121 96.2377C50.6101 96.1304 56.7204 96.071 63.7099 95.8606C70.6995 95.6503 78.3832 95.2908 82.46 95.0811C87.5113 94.8213 89.2618 94.327 90.7981 94.1447C91.4348 94.0691 92.0461 93.6146 92.7023 93.061C94.288 91.7232 94.2042 88.306 94.3935 84.5298C94.4994 82.4168 94.3876 78.7069 94.3251 76.4441C94.2431 73.4724 93.9956 70.7122 93.8652 67.4841C93.8054 66.0044 93.5973 64.9703 92.9837 62.8242C91.9748 59.296 90.2048 56.1934 89 54.486C87.6029 52.5061 85.4004 50.2505 83.1608 47.8409C82.4935 47.1229 81.185 46.4066 78.9792 45.6809C76.7056 44.9329 74.9834 46.4484 74.4159 47.1801C73.6251 48.1996 72.7692 51.6959 72.4461 55.5604C72.3733 56.4311 75.3009 59.4613 79.0239 63.844C80.4949 65.5756 81.5526 68.0929 83.1054 71.8996C83.9989 74.09 84.2568 76.8772 84.434 80.2968C84.6415 84.3021 83.2943 87.1607 82.4478 88.3217C81.6072 89.4747 80.0194 89.4269 77.117 90.0041C75.1538 90.3945 71.5075 90.8396 67.1256 91.1014C62.7437 91.3631 57.7223 91.3478 54.3727 91.1052C49.4587 90.7493 46.97 89.4618 45.3848 88.663C43.5445 87.7357 42.1456 84.7004 41.4977 82.4265C40.8305 80.0845 41.6058 77.1416 42.1275 74.3949C42.7279 71.2336 44.1536 68.0815 45.369 65.557C46.6672 62.8603 50.017 61.2001 52.5378 60.0846C55.2353 58.891 59.5973 60.1807 61.0763 61.0623C61.9991 61.6124 63.6876 64.0712 65.8595 67.27C67.1768 69.2102 67.9385 72.6522 68.7381 76.8105C69.0288 78.322 68.9908 78.6356 68.8201 78.9023C67.8227 80.4596 63.004 80.855 57.4295 80.9892C55.3686 81.0388 54.2297 79.6899 53.4126 78.8752C52.4073 77.873 52.2308 75.8451 52.2097 73.1103C52.2039 72.3538 52.7258 71.8815 53.3024 71.4123C54.4772 70.4563 59.316 70.4958 62.4193 70.8341C63.0564 70.9035 63.4403 71.5872 63.8392 72.2889C65.3496 74.9459 64.9033 78.2058 64.724 78.7715C64.5296 79.3849 63.474 79.276 62.9498 79.1784C63.0358 77.8439 63.811 76.2579 64.204 75.7884C64.4069 75.585 64.6166 75.4524 64.8328 75.3158" stroke="#6C8657" stroke-width="20" stroke-linecap="round"/>
<path d="M63.0316 44.757C62.6676 44.8788 61.2624 45.3302 59.0021 45.6112C57.2269 45.8318 55.4547 47.5009 53.4558 48.0877C50.499 48.9557 49.541 49.2335 47.9354 49.8586C45.6276 50.7571 44.358 50.8752 43.2502 51.3207C41.7959 51.9056 39.9249 52.6008 38.2727 53.1219C35.9578 53.852 33.0386 54.5147 26.8549 54.7363C24.6903 54.4561 23.7385 53.5802 22.8139 52.9231C22.5852 52.8062 22.3445 52.6849 21.8051 52.4477" stroke="#435932" stroke-width="10" stroke-linecap="round"/>
<path d="M62.6772 49.9042C62.7121 49.9042 63.0191 50.0365 63.7288 50.398C64.7181 50.902 68.7502 52.8246 74.1824 55.2472C77.0664 56.5334 78.3108 57.8033 79.4959 58.6878C81.622 60.2747 83.6218 61.9133 84.9394 62.7972C85.8397 63.4012 86.0167 66.9578 86.5882 69.2376C87.0896 71.2379 87.5745 74.1692 89.1204 79.418C90.3352 83.5426 89.7549 89.4005 90.0191 91.2593C90.205 92.5671 90.4915 93.6379 90.5954 96.3984C90.629 97.2893 90.2721 97.9325 89.7151 98.6334C88.6367 99.9906 86.7035 100.424 85.2466 100.903C84.6013 101.116 81.6407 101.186 76.895 101.211C74.7382 101.212 73.0916 101.189 72.1382 101.247C71.1848 101.304 70.9744 101.442 70.6983 101.647" stroke="#435932" stroke-width="10" stroke-linecap="round"/>
<path d="M28.8844 73.2994C28.8599 73.733 28.7612 76.5017 28.0814 79.521C27.3359 82.8322 26.9726 84.8104 26.82 87.0081C26.7059 88.6526 26.0894 90.5044 24.9513 93.7867C24.2369 96.3418 23.8083 98.0718 23.745 98.6154C23.7199 98.9241 23.7092 99.2995 23.5729 100.155" stroke="#435932" stroke-width="10" stroke-linecap="round"/>
<path d="M45.489 46.018C45.4338 44.7969 45.2595 42.5717 45.6521 40.8236C45.9251 39.6079 47.072 39.0872 47.5842 38.8196C48.289 38.4514 49.1212 38.5318 49.6611 38.607C49.9085 38.6415 50.0528 38.8684 50.1389 39.1213C50.5892 40.4432 48.9401 43.0271 47.9842 44.0275C47.2507 44.7952 47.9426 41.425 49.8226 37.4051C50.7065 35.5151 52.444 34.2838 53.6471 33.9192C54.6218 33.6239 55.7411 34.0963 56.5849 34.5742C57.9169 35.3285 58.43 36.7522 58.5833 37.9873C58.7984 39.7214 56.3919 41.26 55.996 41.4319C55.5925 41.6071 55.4819 40.233 55.5049 39.0628C55.5383 37.3657 57.288 35.8764 58.3534 35.2591C58.6879 35.0652 58.7413 36.2742 58.6437 37.2671C58.3965 39.7841 54.9371 41.717 52.9668 42.9386C52.5249 43.2126 52.0824 43.3163 51.8197 43.1457C51.1861 42.7341 51.3631 41.5992 51.4686 40.7604C51.7699 38.3641 53.7073 36.4181 54.8515 35.395C56.0165 34.3532 58.0336 34.5234 60.4366 34.5579C61.1901 34.5688 61.556 35.2873 61.8647 35.8771C62.4736 37.0399 62.068 38.4303 61.9278 38.6232C61.3835 39.3718 63.7358 36.4235 65.1145 35.6739C66.8374 34.7371 67.8256 35.7514 68.2915 36.0656C68.8076 36.4136 68.8779 37.6331 68.8099 38.8771C68.7836 39.3569 68.4625 39.4865 67.9948 39.5701C67.527 39.6537 66.8426 39.6764 66.4729 39.5444C66.1032 39.4125 66.0689 39.1252 66.0953 38.8548C66.1217 38.5843 66.2099 38.3393 66.4795 38.1387C67.8129 37.1465 69.2764 37.3458 70.0617 37.4292C70.3799 37.4629 70.4664 37.7792 70.5211 38.0682C70.7466 39.2592 70.0754 39.9579 69.9088 40.1917C69.3203 41.0178 72.6349 37.9429 73.7152 36.2818C74.9587 34.3697 75.1906 33.0882 75.3805 31.3647C75.4838 30.4265 75.8608 29.5817 76.2288 28.9105C76.3908 28.615 76.617 28.4815 76.7258 28.9245C77.4165 31.7366 76.2465 33.451 75.0291 35.6355C74.6867 36.2497 74.1826 36.816 73.9167 36.9728C73.6507 37.1296 73.5882 36.8292 73.6034 36.4366C73.6653 34.8298 73.9007 33.7862 74.36 32.1945C74.7106 30.9792 75.9841 29.9041 77.0578 29.0814C77.5982 28.6673 78.2681 28.6127 78.7002 28.6958C80.242 28.9925 79.0508 32.5056 78.14 34.8843C76.3977 39.4342 74.4161 42.5344 74.0399 42.8969C73.8281 43.1011 75.6286 39.1264 78.5778 33.7532C80.6717 29.9383 80.5316 27.4332 80.108 25.945C79.9726 25.4692 79.2638 25.4075 78.7078 25.3346C78.1565 25.2622 77.6198 25.5192 77.0819 25.9168C75.7263 26.9187 74.069 30.8937 72.5062 33.6141C72.1619 34.2134 71.5682 34.4203 71.1509 34.5005C70.9564 34.5378 70.8026 34.241 70.7821 33.9264C70.6318 31.6104 74.4031 28.2842 78.0895 25.2829C78.9603 24.5739 79.6535 24.6766 80.2392 24.7505C80.7661 24.8171 81.1825 25.1975 81.551 25.5838C81.9525 26.0047 81.9393 27.0768 81.8899 28.2809C81.7597 31.451 77.6695 35.5588 76.3553 36.9271C75.3897 37.9324 73.9007 40.0405 72.5727 41.9711C71.3414 43.7612 70.3199 44.2685 69.5038 45.0152C69.3314 45.1729 69.4893 45.4683 69.6341 45.6623C70.418 46.7122 72.0196 47.3474 73.1424 47.934C74.785 48.7922 75.8091 48.8935 76.7187 49.349C77.9736 49.9773 74.7237 45.8116 74.1888 44.4029C74.0175 43.9519 74.4354 43.9337 74.8776 44.1197C77.4525 45.2029 78.8196 47.7855 79.4982 49.0658C79.6545 49.3604 79.7815 49.5779 79.871 49.4816C81.4623 47.7707 79.6941 42.6744 79.0311 40.4617C78.1949 37.6708 79.0116 49.2018 79.769 51.1798C80.2102 52.3319 82.081 52.9318 83.3825 53.5189C84.5182 54.0312 86.559 57.0076 87.9296 58.9771C88.7628 60.1742 90.1685 60.9734 91.2447 62.5167C92.2775 63.9978 92.7045 65.0737 92.971 67.2145C93.3078 69.9193 94.4042 73.3007 95.3434 76.1528C96.1299 78.5413 96.0572 80.598 96.3872 84.5116C96.9082 90.6897 96.6192 94.7421 96.4792 95.3631C96.0811 97.1293 95.594 98.2884 95.6071 98.7084C95.6383 99.7145 97.5511 99.5564 98.4343 99.6174C98.7866 99.6417 98.9252 99.3029 98.999 98.907C99.3421 97.0669 98.7539 93.6481 98.5825 90.5213C98.4657 88.3912 98.4981 86.6342 98.4096 83.8808C98.203 77.4481 98.3293 72.8953 98.2742 72.3136C98.164 71.1476 97.872 69.933 97.3303 68.8421C96.2346 66.6353 94.4992 63.0942 93.9634 62.501C93.0138 61.4497 96.8865 66.3506 98.8297 71.2619C99.1097 71.9697 99.2177 71.631 99.2737 70.8804C99.64 65.9725 98.5129 61.6559 98.5545 60.671C98.5687 60.3336 98.8904 60.3785 99.0501 60.574C99.4293 61.0385 99.3534 63.5768 98.384 64.5828C97.3796 65.6251 95.4711 59.2181 94.4116 57.2096C93.352 55.2012 93.2341 55.6051 93.1631 56.5911C92.835 61.1491 92.7311 62.26 92.4401 62.5212C92.059 62.8633 90.7733 60.479 89.3157 57.9645C88.6547 56.824 86.411 54.6359 83.0314 51.4324C81.3311 49.8207 80.5534 48.5389 80.0037 47.2585C79.8054 46.7966 80.1072 46.6053 80.453 46.5575C81.2582 46.4462 83.8191 47.5843 87.2652 49.1736C89.2976 50.1109 90.2202 50.8794 91.7741 52.5713C97.6979 59.0214 98.0711 60.2605 99.378 61.0032C100.444 61.6092 101.487 61.6035 101.781 61.4596C101.94 61.3821 101.677 60.9244 99.7912 59.1385C97.9058 57.3526 94.2936 54.1575 91.8774 51.8112C88.1859 48.2265 86.8986 46.1098 85.6079 43.5079C82.8001 37.8474 81.1215 33.7966 80.9459 33.652C80.6426 33.4022 81.6389 35.1299 82.5966 36.8818C83.7404 38.9739 84.5297 42.1621 85.2347 45.2063C85.7504 47.4325 87.9175 49.4639 89.2746 51.1559C90.7881 53.0429 91.8202 57.4092 93.1461 60.5172C93.5775 61.2189 94.1945 62.0785 94.5986 62.6167C95.0027 63.1548 95.1751 63.3456 95.6496 63.8623" stroke="#5C7546" stroke-width="5" stroke-linecap="round"/>
<path d="M32.5572 66.2174C32.5927 66.2174 35.0984 66.203 39.7403 66.0988C43.6481 66.0111 45.8954 65.6246 47.7216 65.5475C53.9309 65.4399 55.5118 64.6574 57.8782 63.4982C58.3955 63.2267 58.7749 62.9735 59.4851 62.5502" stroke="#63774E" stroke-width="5" stroke-linecap="round"/>
<path d="M33.6206 69.327C33.8564 69.3202 35.6519 69.9811 39.1821 71.1225C41.7914 71.9661 45.0338 71.9904 47.9245 72.2284C53.0133 72.7315 57.2005 72.607 57.7208 72.3354C57.9646 72.1957 58.1673 72.0524 58.6768 71.6032" stroke="#63774E" stroke-width="5" stroke-linecap="round"/>
<path d="M33.2596 68.7478C33.5652 69.0255 34.7961 70.2678 37.4115 72.4853C39.8719 74.5713 45.2713 75.3719 47.962 75.7006C49.8633 75.9329 53.5062 77.255 56.2169 77.6149C56.8945 77.6939 57.4872 77.7774 58.1663 77.8453C58.5104 77.8679 58.8533 77.8664 59.2067 77.8648" stroke="#63774E" stroke-width="5" stroke-linecap="round"/>
<path d="M26.0653 47.4043C25.9918 47.4043 25.3663 47.4043 24.4213 47.2676C22.1269 46.9357 23.8667 41.2385 24.5515 39.8766C24.9131 39.1574 25.4401 38.7384 26.0138 38.5369C26.377 38.4094 26.9489 38.4668 27.3263 38.6154C29.0114 39.2791 27.7681 43.3237 27.3095 45.0504C26.9971 46.2265 26.6744 47.0969 26.316 47.1784C24.5266 47.5853 26.1872 42.1343 27.4542 39.8374C28.0783 38.7061 29.1225 38.274 29.9649 38.0347C31.0721 37.7202 32.0765 38.0476 32.6242 38.3697C33.5216 38.8975 33.9221 40.2492 34.2022 42.374C34.4868 44.5323 34.1667 46.164 33.9432 46.6658C33.3105 48.0864 30.7766 47.9184 30.2006 47.7952C28.9834 47.535 29.2144 45.3859 29.3831 41.7637C29.4681 39.9408 30.6686 38.8608 31.2295 38.1946C31.9603 37.3267 34.3396 37.374 35.9371 37.6255C36.5403 37.7205 36.8717 38.4215 37.1718 39.0623C38.2554 41.377 37.5383 44.6192 36.9209 46.2119C36.6816 46.829 36.244 47.1716 35.8864 47.2385C35.4232 47.3251 35.46 45.9023 35.5422 44.6905C35.6592 42.9659 37.5298 41.5418 38.9723 40.6711C39.4285 40.3958 40.3307 40.5514 40.8496 40.6199C41.3686 40.6884 41.5475 40.8523 41.7108 41.2144C42.1084 42.0961 42.1797 43.6227 42.1353 45.1538C42.1087 46.0675 41.5963 46.5717 41.1794 46.8891C40.9924 47.0314 40.7171 46.8809 40.5693 46.6707C40.3243 45.5025 40.4333 44.4073 41.6074 41.8804C41.9135 41.3609 42.1082 41.22 42.4843 41.0749" stroke="#5C7546" stroke-width="5" stroke-linecap="round"/>
<circle cx="24" cy="20" r="6.5" stroke="black"/>
<circle cx="63" cy="23" r="6.5" stroke="black"/>
<path d="M16.5 39.5L18 44M24.5 46.5L28.5 44M20.5 55.5C20.5 55.5 19.6462 59.318 20.5 61.5C21.3538 63.682 32.3121 64.1369 32.5 65.5C32.6879 66.8631 32.0942 69 32.0942 69M28.5 100L32.0942 69M32.0942 69L20.5 100M62.5 48L83 65.5L87 94.5M87 94.5L84.25 98M87 94.5C87 94.5 92.0408 93.0856 92.5 94.5C92.9592 95.9144 91 98 91 98L87 100L84.25 98M66 100L74.5 96L78 98M81.5 100L78 98M78 98L81.5 96L84.25 98" stroke="black"/>
<circle cx="25" cy="21" r="4" fill="black"/>
<circle cx="66" cy="23" r="4" fill="black"/>
<path d="M99.9999 43.5005C84.6209 14.0553 71.4947 10.2354 56 16.5001C40.5053 22.7649 17.6542 0.772218 12.5 28.0004C7.34572 55.2287 24.0773 55.8991 24 56.0005C23.9628 56.0492 35.6239 56.5654 46.5 53.5C58.2474 50.1891 69.2362 43.283 68 43.5005M62.5 38.5C67.2906 41.3958 70.3115 42.7327 70 50" stroke="black"/>
<path d="M26.091 17.7896C25.5039 17.7896 24.03 17.8956 23.4028 18.2124C22.8605 18.4864 22.5449 19.0508 22.2505 19.6482C21.9661 20.2249 21.9277 20.8674 21.9383 21.8505C21.9453 22.4966 22.5399 22.9092 23.0014 23.3882C23.4111 23.8132 24.1023 23.7993 24.8936 23.8915C25.8176 23.9991 26.5214 23.8393 26.7315 23.6171C27.2219 23.0986 27.5234 22.3284 27.8617 21.6851C28.2641 20.9197 27.8098 19.6579 27.4116 19.0988C26.8218 18.5629 26.3111 18.3138 26.0021 18.2172C25.837 18.1583 25.6551 18.0795 25.3799 17.904" stroke="#3D4126" stroke-width="2" stroke-linecap="round"/>
<path d="M65.7036 20.4067C65.413 20.4067 64.6529 20.5795 64.147 20.9751C63.893 21.1737 63.6131 21.3342 63.3567 21.528C62.824 21.9307 62.8617 23.6404 63.0304 24.6723C63.1334 25.3027 63.7349 25.6681 64.2711 26.1375C64.8531 26.6471 66.1899 26.5424 67.1476 26.3875C67.9236 26.2619 68.2723 25.6538 68.661 24.9699C69.052 24.2821 68.9316 22.979 68.7788 22.0986C68.6434 21.3179 67.858 20.9151 67.2939 20.5112C66.6865 20.2227 66.0078 20.0026 64.8862 19.9404C64.6417 19.9628 64.5063 20.0223 64.3668 20.0836" stroke="#3D4126" stroke-width="2" stroke-linecap="round"/>
</g>
<defs>
<clipPath id="clip0_58_172">
<rect width="100" height="100" fill="white"/>
</clipPath>
</defs>
</svg>
